<svg xmlns="http://www.w3.org/2000/svg" version="1.1" width="5in" height="3.5in" viewBox = " 0 0 450 315" >
<!-- Front--> 
<g transform="translate(22.5, 22.5) " > 
<polygon style="stroke:#000000; fill:none; stroke-width:0.9" points="0, 0 16.875, 0 16.875, 10.62 33.75, 10.62 33.75, 0 47.25, 0 47.25, 10.62 60.75, 10.62 60.75, 0 74.25, 0 74.25, 10.62 87.75, 10.62 87.75, 0 101.25, 0 101.25, 10.62 118.125, 10.62 118.125, 0 135, 0 135, 16.875 124.38, 16.875 124.38, 33.75 135, 33.75 135, 47.25 124.38, 47.25 124.38, 60.75 135, 60.75 135, 74.25 124.38, 74.25 124.38, 87.75 135, 87.75 135, 101.25 124.38, 101.25 124.38, 118.125 135, 118.125 135, 135 118.125, 135 118.125, 124.38 101.25, 124.38 101.25, 135 87.75, 135 87.75, 124.38 74.25, 124.38 74.25, 135 60.75, 135 60.75, 124.38 47.25, 124.38 47.25, 135 33.75, 135 33.75, 124.38 16.875, 124.38 16.875, 135 0, 135 0, 118.125 10.62, 118.125 10.62, 101.25 0, 101.25 0, 87.75 10.62, 87.75 10.62, 74.25 0, 74.25 0, 60.75 10.62, 60.75 10.62, 47.25 0, 47.25 0, 33.75 10.62, 33.75 10.62, 16.875 0, 16.875 "/> 
</g>
<!-- Back--> 
<g transform="translate(157.5, 22.5) " > 
<polygon style="stroke:#000000; fill:none; stroke-width:0.9" points="0, 0 16.875, 0 16.875, 10.62 33.75, 10.62 33.75, 0 47.25, 0 47.25, 10.62 60.75, 10.62 60.75, 0 74.25, 0 74.25, 10.62 87.75, 10.62 87.75, 0 101.25, 0 101.25, 10.62 118.125, 10.62 118.125, 0 135, 0 135, 16.875 124.38, 16.875 124.38, 33.75 135, 33.75 135, 47.25 124.38, 47.25 124.38, 60.75 135, 60.75 135, 74.25 124.38, 74.25 124.38, 87.75 135, 87.75 135, 101.25 124.38, 101.25 124.38, 118.125 135, 118.125 135, 135 118.125, 135 118.125, 124.38 101.25, 124.38 101.25, 135 87.75, 135 87.75, 124.38 74.25, 124.38 74.25, 135 60.75, 135 60.75, 124.38 47.25, 124.38 47.25, 135 33.75, 135 33.75, 124.38 16.875, 124.38 16.875, 135 0, 135 0, 118.125 10.62, 118.125 10.62, 101.25 0, 101.25 0, 87.75 10.62, 87.75 10.62, 74.25 0, 74.25 0, 60.75 10.62, 60.75 10.62, 47.25 0, 47.25 0, 33.75 10.62, 33.75 10.62, 16.875 0, 16.875 "/> 
</g>
<!-- Left--> 
<g transform="translate(292.5, 22.5) " > 
<polygon style="stroke:#000000; fill:none; stroke-width:0.9" points="10.62, 0 16.875, 0 16.875, 10.62 33.75, 10.62 33.75, 0 47.25, 0 47.25, 10.62 60.75, 10.62 60.75, 0 74.25, 0 74.25, 10.62 87.75, 10.62 87.75, 0 101.25, 0 101.25, 10.62 118.125, 10.62 118.125, 0 124.38, 0 124.38, 16.875 135, 16.875 135, 33.75 124.38, 33.75 124.38, 47.25 135, 47.25 135, 60.75 124.38, 60.75 124.38, 74.25 135, 74.25 135, 87.75 124.38, 87.75 124.38, 101.25 135, 101.25 135, 118.125 124.38, 118.125 124.38, 135 118.125, 135 118.125, 124.38 101.25, 124.38 101.25, 135 87.75, 135 87.75, 124.38 74.25, 124.38 74.25, 135 60.75, 135 60.75, 124.38 47.25, 124.38 47.25, 135 33.75, 135 33.75, 124.38 16.875, 124.38 16.875, 135 10.62, 135 10.62, 118.125 0, 118.125 0, 101.25 10.62, 101.25 10.62, 87.75 0, 87.75 0, 74.25 10.62, 74.25 10.62, 60.75 0, 60.75 0, 47.25 10.62, 47.25 10.62, 33.75 0, 33.75 0, 16.875 10.62, 16.875 "/> 
</g>
<!-- Right--> 
<g transform="translate(292.5, 157.5) " > 
<polygon style="stroke:#000000; fill:none; stroke-width:0.9" points="10.62, 0 16.875, 0 16.875, 10.62 33.75, 10.62 33.75, 0 47.25, 0 47.25, 10.62 60.75, 10.62 60.75, 0 74.25, 0 74.25, 10.62 87.75, 10.62 87.75, 0 101.25, 0 101.25, 10.62 118.125, 10.62 118.125, 0 124.38, 0 124.38, 16.875 135, 16.875 135, 33.75 124.38, 33.75 124.38, 47.25 135, 47.25 135, 60.75 124.38, 60.75 124.38, 74.25 135, 74.25 135, 87.75 124.38, 87.75 124.38, 101.25 135, 101.25 135, 118.125 124.38, 118.125 124.38, 135 118.125, 135 118.125, 124.38 101.25, 124.38 101.25, 135 87.75, 135 87.75, 124.38 74.25, 124.38 74.25, 135 60.75, 135 60.75, 124.38 47.25, 124.38 47.25, 135 33.75, 135 33.75, 124.38 16.875, 124.38 16.875, 135 10.62, 135 10.62, 118.125 0, 118.125 0, 101.25 10.62, 101.25 10.62, 87.75 0, 87.75 0, 74.25 10.62, 74.25 10.62, 60.75 0, 60.75 0, 47.25 10.62, 47.25 10.62, 33.75 0, 33.75 0, 16.875 10.62, 16.875 "/> 
</g>
<!-- Top--> 
<g transform="translate(22.5, 157.5) " > 
<polygon style="stroke:#000000; fill:none; stroke-width:0.9" points="10.62, 10.62 16.875, 10.62 16.875, 0 33.75, 0 33.75, 10.62 47.25, 10.62 47.25, 0 60.75, 0 60.75, 10.62 74.25, 10.62 74.25, 0 87.75, 0 87.75, 10.62 101.25, 10.62 101.25, 0 118.125, 0 118.125, 10.62 124.38, 10.62 124.38, 16.875 135, 16.875 135, 33.75 124.38, 33.75 124.38, 47.25 135, 47.25 135, 60.75 124.38, 60.75 124.38, 74.25 135, 74.25 135, 87.75 124.38, 87.75 124.38, 101.25 135, 101.25 135, 118.125 124.38, 118.125 124.38, 124.38 118.125, 124.38 118.125, 135 101.25, 135 101.25, 124.38 87.75, 124.38 87.75, 135 74.25, 135 74.25, 124.38 60.75, 124.38 60.75, 135 47.25, 135 47.25, 124.38 33.75, 124.38 33.75, 135 16.875, 135 16.875, 124.38 10.62, 124.38 10.62, 118.125 0, 118.125 0, 101.25 10.62, 101.25 10.62, 87.75 0, 87.75 0, 74.25 10.62, 74.25 10.62, 60.75 0, 60.75 0, 47.25 10.62, 47.25 10.62, 33.75 0, 33.75 0, 16.875 10.62, 16.875 "/> 
 
 <g transform="scale(0.02197265625)" ><g transform="translate(0,819)" ></g></g> 
</g>
<!-- Bottom--> 
<g transform="translate(157.5, 157.5) " > 
<polygon style="stroke:#000000; fill:none; stroke-width:0.9" points="10.62, 10.62 16.875, 10.62 16.875, 0 33.75, 0 33.75, 10.62 47.25, 10.62 47.25, 0 60.75, 0 60.75, 10.62 74.25, 10.62 74.25, 0 87.75, 0 87.75, 10.62 101.25, 10.62 101.25, 0 118.125, 0 118.125, 10.62 124.38, 10.62 124.38, 16.875 135, 16.875 135, 33.75 124.38, 33.75 124.38, 47.25 135, 47.25 135, 60.75 124.38, 60.75 124.38, 74.25 135, 74.25 135, 87.75 124.38, 87.75 124.38, 101.25 135, 101.25 135, 118.125 124.38, 118.125 124.38, 124.38 118.125, 124.38 118.125, 135 101.25, 135 101.25, 124.38 87.75, 124.38 87.75, 135 74.25, 135 74.25, 124.38 60.75, 124.38 60.75, 135 47.25, 135 47.25, 124.38 33.75, 124.38 33.75, 135 16.875, 135 16.875, 124.38 10.62, 124.38 10.62, 118.125 0, 118.125 0, 101.25 10.62, 101.25 10.62, 87.75 0, 87.75 0, 74.25 10.62, 74.25 10.62, 60.75 0, 60.75 0, 47.25 10.62, 47.25 10.62, 33.75 0, 33.75 0, 16.875 10.62, 16.875 "/> 
</g></svg>